<?xml version="1.0" standalone="no"?>
<!DOCTYPE svg PUBLIC "-//W3C//DTD SVG 20010904//EN"
 "http://www.w3.org/TR/2001/REC-SVG-20010904/DTD/svg10.dtd">
<svg version="1.0" xmlns="http://www.w3.org/2000/svg"
 width="145.000000pt" height="139.000000pt" viewBox="0 0 145.000000 139.000000"
 preserveAspectRatio="xMidYMid meet">

<g transform="translate(0.000000,139.000000) scale(0.100000,-0.100000)"
fill="#000000" stroke="none">
<path d="M290 1120 l0 -160 45 0 45 0 0 110 0 110 360 0 360 0 0 -110 0 -110
45 0 45 0 0 160 0 160 -450 0 -450 0 0 -160z"/>
<path d="M50 690 l0 -130 79 0 c43 0 92 5 110 11 53 19 68 73 30 108 -20 18
-20 21 -5 42 22 32 20 46 -9 74 -22 23 -32 25 -115 25 l-90 0 0 -130z m139 71
c23 -15 5 -41 -29 -41 -25 0 -30 4 -30 25 0 19 5 25 23 25 12 0 28 -4 36 -9z
m16 -116 c0 -16 -8 -21 -37 -23 -35 -3 -38 -1 -38 23 0 24 3 26 38 23 29 -2
37 -7 37 -23z"/>
<path d="M330 795 c0 -22 4 -25 35 -25 31 0 35 3 35 25 0 22 -4 25 -35 25 -31
0 -35 -3 -35 -25z"/>
<path d="M450 690 l0 -130 29 0 c16 0 31 6 34 13 4 10 7 10 18 0 19 -19 63
-16 89 5 34 28 39 108 9 146 -20 25 -27 28 -66 23 l-43 -5 0 39 c0 38 -1 39
-35 39 l-35 0 0 -130z m126 -17 c8 -32 -6 -58 -32 -58 -13 0 -20 8 -22 28 -6
53 42 80 54 30z"/>
<path d="M672 788 c3 -30 6 -33 40 -36 l37 -3 3 -92 3 -92 38 -3 37 -3 0 95 0
96 40 0 c39 0 40 1 40 35 l0 35 -121 0 -120 0 3 -32z"/>
<path d="M1190 761 c22 -33 40 -63 40 -66 0 -3 -18 -33 -40 -65 -22 -32 -40
-61 -40 -64 0 -4 18 -6 40 -6 36 0 42 4 65 40 14 22 27 40 29 40 3 0 15 -18
27 -40 21 -37 26 -40 66 -40 24 0 43 2 43 6 0 3 -18 32 -40 64 -22 32 -40 62
-40 65 0 3 16 31 35 61 19 30 35 57 35 59 0 3 -18 5 -40 5 -35 0 -42 -4 -62
-39 l-22 -39 -24 39 c-21 36 -26 39 -68 39 l-45 0 41 -59z"/>
<path d="M330 655 l0 -95 35 0 35 0 0 95 0 95 -35 0 -35 0 0 -95z"/>
<path d="M965 738 c-33 -19 -44 -41 -45 -86 0 -60 32 -92 95 -92 45 0 105 22
105 39 0 14 -52 20 -77 8 -16 -7 -26 -7 -38 3 -28 23 -15 30 55 30 69 0 70 1
70 26 0 15 -12 38 -29 55 -24 23 -38 29 -73 29 -24 0 -52 -6 -63 -12z m83 -40
c20 -20 14 -28 -23 -28 -19 0 -35 4 -35 8 0 12 22 32 35 32 6 0 16 -5 23 -12z"/>
<path d="M290 260 l0 -160 450 0 450 0 0 160 0 160 -45 0 -45 0 0 -110 0 -110
-360 0 -360 0 0 110 0 110 -45 0 -45 0 0 -160z"/>
</g>
</svg>
