<?xml version="1.0" standalone="no"?>
<!DOCTYPE svg PUBLIC "-//W3C//DTD SVG 20010904//EN"
 "http://www.w3.org/TR/2001/REC-SVG-20010904/DTD/svg10.dtd">
<svg version="1.0" xmlns="http://www.w3.org/2000/svg"
 width="126.000000pt" height="143.000000pt" viewBox="0 0 126.000000 143.000000"
 preserveAspectRatio="xMidYMid meet">

<g transform="translate(0.000000,143.000000) scale(0.100000,-0.100000)"
fill="#000000" stroke="none">
<path d="M180 1120 l0 -160 45 0 45 0 0 110 0 110 360 0 360 0 0 -110 0 -110
45 0 45 0 0 160 0 160 -450 0 -450 0 0 -160z"/>
<path d="M130 690 l0 -180 50 0 50 0 0 65 c0 58 2 65 20 65 18 0 20 -7 20 -65
l0 -65 45 0 45 0 0 180 0 180 -45 0 -45 0 0 -65 c0 -58 -2 -65 -20 -65 -18 0
-20 7 -20 65 l0 65 -50 0 -50 0 0 -180z"/>
<path d="M400 825 c0 -41 2 -45 25 -45 l25 0 0 -135 0 -135 45 0 45 0 0 135 0
135 25 0 c23 0 25 4 25 45 l0 45 -95 0 -95 0 0 -45z"/>
<path d="M630 690 l0 -180 45 0 45 0 0 103 1 102 22 -28 23 -27 21 27 22 28 0
-102 1 -103 45 0 45 0 0 180 0 180 -45 0 c-38 0 -48 -4 -67 -30 l-22 -30 -24
30 c-20 25 -30 30 -68 30 l-44 0 0 -180z"/>
<path d="M940 690 l0 -180 95 0 95 0 0 45 0 45 -45 0 -45 0 0 135 0 135 -50 0
-50 0 0 -180z"/>
<path d="M180 260 l0 -160 450 0 450 0 0 160 0 160 -45 0 -45 0 0 -110 0 -110
-360 0 -360 0 0 110 0 110 -45 0 -45 0 0 -160z"/>
</g>
</svg>
