<?xml version="1.0" standalone="no"?>
<!DOCTYPE svg PUBLIC "-//W3C//DTD SVG 20010904//EN"
 "http://www.w3.org/TR/2001/REC-SVG-20010904/DTD/svg10.dtd">
<svg version="1.0" xmlns="http://www.w3.org/2000/svg"
 width="120.000000pt" height="141.000000pt" viewBox="0 0 120.000000 141.000000"
 preserveAspectRatio="xMidYMid meet">

<g transform="translate(0.000000,141.000000) scale(0.100000,-0.100000)"
fill="#000000" stroke="none">
<path d="M140 1110 l0 -160 45 0 45 0 0 110 0 110 360 0 360 0 0 -110 0 -110
45 0 45 0 0 160 0 160 -450 0 -450 0 0 -160z"/>
<path d="M178 728 c-3 -110 -6 -133 -18 -133 -8 0 -16 10 -18 23 -3 19 -9 22
-48 22 -41 0 -44 -2 -44 -27 0 -40 32 -87 69 -102 66 -28 134 11 152 86 5 21
9 89 9 151 l0 112 -50 0 -49 0 -3 -132z"/>
<path d="M374 841 c-85 -52 -62 -175 38 -201 28 -8 38 -16 38 -30 0 -13 -7
-20 -20 -20 -11 0 -20 5 -20 10 0 6 -20 10 -45 10 -34 0 -45 -4 -45 -15 0 -31
29 -72 60 -85 114 -47 215 93 129 179 -17 17 -40 31 -52 31 -32 0 -51 15 -44
34 7 18 32 21 42 6 3 -5 24 -10 46 -10 33 0 39 3 39 20 0 32 -28 67 -62 79
-44 16 -69 14 -104 -8z"/>
<path d="M648 845 c-45 -25 -58 -63 -58 -167 0 -73 4 -100 19 -124 38 -63 128
-70 175 -14 48 58 47 226 -2 281 -33 37 -93 47 -134 24z m67 -166 c0 -68 -3
-84 -15 -84 -12 0 -16 16 -18 74 -3 82 2 105 21 98 8 -2 12 -29 12 -88z"/>
<path d="M860 680 l0 -180 45 0 45 0 0 66 0 67 20 -26 c13 -16 20 -40 20 -66
l0 -41 50 0 50 0 0 180 0 180 -50 0 -50 0 0 -62 -1 -63 -19 24 c-12 14 -20 38
-20 62 l0 39 -45 0 -45 0 0 -180z"/>
<path d="M140 250 l0 -160 450 0 450 0 0 160 0 160 -45 0 -45 0 0 -110 0 -110
-360 0 -360 0 0 110 0 110 -45 0 -45 0 0 -160z"/>
</g>
</svg>
