<?xml version="1.0" standalone="no"?>
<!DOCTYPE svg PUBLIC "-//W3C//DTD SVG 20010904//EN"
 "http://www.w3.org/TR/2001/REC-SVG-20010904/DTD/svg10.dtd">
<svg version="1.0" xmlns="http://www.w3.org/2000/svg"
 width="115.000000pt" height="143.000000pt" viewBox="0 0 115.000000 143.000000"
 preserveAspectRatio="xMidYMid meet">

<g transform="translate(0.000000,143.000000) scale(0.100000,-0.100000)"
fill="#000000" stroke="none">
<path d="M120 1150 l0 -160 45 0 45 0 0 110 0 110 360 0 360 0 0 -110 0 -110
45 0 45 0 0 160 0 160 -450 0 -450 0 0 -160z"/>
<path d="M234 834 c-80 -39 -87 -176 -12 -228 28 -20 119 -21 157 -2 15 8 32
26 39 41 17 37 15 126 -4 153 -34 50 -118 67 -180 36z m93 -52 c30 -19 36 -87
10 -119 -12 -16 -59 -17 -75 -1 -18 18 -15 88 5 110 17 19 40 23 60 10z"/>
<path d="M480 720 l0 -132 90 4 c104 4 125 17 141 87 12 54 -2 109 -37 142
-22 21 -37 24 -110 28 l-84 3 0 -132z m123 61 c29 -11 43 -64 27 -105 -7 -20
-16 -26 -40 -26 l-30 0 0 70 c0 73 3 76 43 61z"/>
<path d="M740 815 c0 -34 1 -35 40 -35 l40 0 0 -95 0 -95 40 0 40 0 0 95 0 95
40 0 c39 0 40 1 40 35 l0 35 -120 0 -120 0 0 -35z"/>
<path d="M120 290 l0 -160 450 0 450 0 0 160 0 160 -45 0 -45 0 0 -110 0 -110
-360 0 -360 0 0 110 0 110 -45 0 -45 0 0 -160z"/>
</g>
</svg>
